<svg xmlns="http://www.w3.org/2000/svg" xmlns:xlink="http://www.w3.org/1999/xlink" data-name="Layer 1" width="685.51522" height="739.81459"><rect id="backgroundrect" width="100%" height="100%" x="0" y="0" fill="none" stroke="none"/><defs><pattern id="e316dee7-4006-4b05-87d0-6679d9899947" data-name="New Pattern Swatch 2" width="40.062278747558594" height="88.60733032226562" patternTransform="translate(-33.63512 45.49742)" patternUnits="userSpaceOnUse" viewBox="0 0 40.062 88.607"><rect width="40.062278747558594" height="88.60733032226562" fill="none" id="svg_1"/><path d="M8.42117,12.83873l-.351,9.44982c-.01793.4827.7321.48195.75,0l.351-9.44982c.01793-.48269-.7321-.48195-.75,0Z" fill="#e4e4e4" id="svg_2"/><path d="M14.47174,14.72892l-.35519,10.58344c-.0162.48275.73382.48215.75,0l.35519-10.58344c.0162-.48274-.73382-.48214-.75,0Z" fill="#e4e4e4" id="svg_3"/><path d="M22.49338,9.06247V19.2672a.37522.37522,0,0,0,.75,0V9.06247a.37522.37522,0,0,0-.75,0Z" fill="#e4e4e4" id="svg_4"/><path d="M21.35952,32.49554l-.7559,6.04725c-.05972.47772.69082.47338.75,0l.7559-6.04725c.05972-.47772-.69082-.47338-.75,0Z" fill="#e4e4e4" id="svg_5"/><path d="M12.33933,31.74523,11.212,41.95068c-.05292.479.69749.47529.75,0l1.12731-10.20545c.05291-.479-.6975-.47528-.75,0Z" fill="#e4e4e4" id="svg_6"/><path d="M6.24141,32.8735v8.315a.37522.37522,0,0,0,.75,0v-8.315a.37522.37522,0,0,0-.75,0Z" fill="#e4e4e4" id="svg_7"/><path d="M25.517,14.35381v9.44882a.37522.37522,0,0,0,.75,0V14.35381a.37522.37522,0,0,0-.75,0Z" fill="#e4e4e4" id="svg_8"/><path d="M25.517,34.38531v8.69291a.37522.37522,0,0,0,.75,0V34.38531a.37522.37522,0,0,0-.75,0Z" fill="#e4e4e4" id="svg_9"/><path d="M17.26482,24.46206l.269,8.50439c.01523.48145.76529.48357.75,0l-.269-8.50439c-.01523-.48145-.7653-.48356-.75,0Z" fill="#e4e4e4" id="svg_10"/><path d="M17.769,46.00735l.28347,4.252c.03193.47908.78217.48264.75,0l-.28347-4.252c-.03194-.47907-.78217-.48263-.75,0Z" fill="#e4e4e4" id="svg_11"/><path d="M12.86987,50.82l-.54861,7.088c-.03725.48131.71293.4789.75,0l.54861-7.088c.03725-.48131-.71293-.4789-.75,0Z" fill="#e4e4e4" id="svg_12"/><path d="M9.04708,27.95505l.83764,4.25448c.09315.47313.81618.27285.72321-.19938l-.83764-4.25448c-.09315-.47313-.81618-.27284-.72321.19938Z" fill="#e4e4e4" id="svg_13"/><path d="M8.13118,46.85775,7.84771,52.8105c-.023.48249.72708.48131.75,0l.28347-5.95275c.023-.48249-.72708-.48131-.75,0Z" fill="#e4e4e4" id="svg_14"/><path d="M3.05092,36.93428,4.468,51.10753c.04757.47576.79806.48067.75,0L3.80092,36.93428c-.04757-.47576-.79806-.48067-.75,0Z" fill="#e4e4e4" id="svg_15"/><path d="M20.65408,32.68363l.28342,16.15748a.37523.37523,0,0,0,.75,0l-.28342-16.15748a.37523.37523,0,0,0-.75,0Z" fill="#e4e4e4" id="svg_16"/><path d="M29.23645,29.57275l-.85038,17.29134c-.02372.48244.72634.4812.75,0l.85038-17.29134c.02373-.48245-.72633-.4812-.75,0Z" fill="#e4e4e4" id="svg_17"/><path d="M23.4417,11.14158l-1.70079,15.874c-.05136.47931.699.47569.75,0l1.70079-15.874c.05135-.47932-.699-.47569-.75,0Z" fill="#e4e4e4" id="svg_18"/><path d="M17.63834.36051,16.51923,16.519c-.03336.48172.71678.47965.75,0L18.38834.36051c.03336-.48172-.71678-.47964-.75,0Z" fill="#e4e4e4" id="svg_19"/><path d="M14.11036,2.92391,11.08567,28.16345c-.05731.47821.69319.47408.75,0L14.86036,2.92391c.0573-.47822-.69319-.47408-.75,0Z" fill="#e4e4e4" id="svg_20"/><path d="M6.76452,2.06841l.922,24.09174c.01842.48109.76851.48348.75,0l-.922-24.09174c-.01841-.48109-.7685-.48348-.75,0Z" fill="#e4e4e4" id="svg_21"/><path d="M11.89378,1.86444l7.922,22.96581c.15645.45356.8812.25865.7232-.19937L12.617,1.66506c-.15645-.45356-.8812-.25865-.72321.19938Z" fill="#e4e4e4" id="svg_22"/><path d="M36.71248,3.20321,36.42908,17.093a.37523.37523,0,0,0,.75,0l.2834-13.88977a.37523.37523,0,0,0-.75,0Z" fill="#e4e4e4" id="svg_23"/><path d="M26.64758,26.72779l.865,19.84188c.021.48077.77107.48338.75,0l-.865-19.84188c-.021-.48077-.77107-.48338-.75,0Z" fill="#e4e4e4" id="svg_24"/><path d="M26.55637,55.36168l-.56693,9.07087c-.03012.482.72.48021.75,0l.56693-9.07087c.03013-.482-.72-.4802-.75,0Z" fill="#e4e4e4" id="svg_25"/><path d="M18.3359,60.46405V67.2672a.37522.37522,0,0,0,.75,0V60.46405a.37522.37522,0,0,0-.75,0Z" fill="#e4e4e4" id="svg_26"/><path d="M10.90433,37.519,9.53047,57.08111c-.03382.48168.71633.47956.75,0L11.65433,37.519c.03383-.48168-.71632-.47956-.75,0Z" fill="#e4e4e4" id="svg_27"/><path d="M1.85326,38.07294l2.02643,32.5958c.02981.47944.78.48282.75,0L2.60326,38.07294c-.0298-.47945-.78-.48282-.75,0Z" fill="#e4e4e4" id="svg_28"/><path d="M.00878,39.28664l7.10214,34.863c.09628.4726.81936.27258.72321-.19938L.732,39.08726c-.09628-.4726-.81935-.27257-.72321.19938Z" fill="#e4e4e4" id="svg_29"/><path d="M12.86379,67.30308l2.17617,6.268c.15732.45315.88211.25831.7232-.19938L13.587,67.1037c-.15732-.45314-.88211-.2583-.7232.19938Z" fill="#e4e4e4" id="svg_30"/><path d="M27.9737,43.73964v22.3937a.37522.37522,0,0,0,.75,0V43.73964a.37522.37522,0,0,0-.75,0Z" fill="#e4e4e4" id="svg_31"/><path d="M32.765,29.95583l3.12427,20.40851c.07281.47558.79561.27356.72321-.19938L33.48823,29.75645c-.0728-.47557-.79561-.27356-.72321.19938Z" fill="#e4e4e4" id="svg_32"/><path d="M31.9422,11.99161V25.5979a.37522.37522,0,0,0,.75,0V11.99161a.37522.37522,0,0,0-.75,0Z" fill="#e4e4e4" id="svg_33"/><path d="M17.25911,52.24023l1.1626,19.84084c.02811.47972.7783.483.75,0l-1.1626-19.84084c-.02811-.47972-.7783-.48295-.75,0Z" fill="#e4e4e4" id="svg_34"/><path d="M9.6505,55.51835l5.31113,18.16358a.37532.37532,0,0,0,.72321-.19938L10.37371,55.319a.37532.37532,0,0,0-.72321.19938Z" fill="#e4e4e4" id="svg_35"/><path d="M26.55637,57.6294v24.378a.37522.37522,0,0,0,.75,0V57.6294a.37522.37522,0,0,0-.75,0Z" fill="#e4e4e4" id="svg_36"/><path d="M33.8778,60.46808,35.5705,80.8782c.03961.47758.79.48181.75,0L34.6278,60.46808c-.03961-.47758-.79-.4818-.75,0Z" fill="#e4e4e4" id="svg_37"/><path d="M22.35126,74.6402l-.8504,13.6063c-.03013.482.72.48021.75,0l.8504-13.6063c.03012-.482-.72-.48021-.75,0Z" fill="#e4e4e4" id="svg_38"/><path d="M14.21491,59.9072,12.51308,82.01735c-.03705.48134.71314.479.75,0L14.96491,59.9072c.03705-.48134-.71314-.479-.75,0Z" fill="#e4e4e4" id="svg_39"/><path d="M5.85358,56.88334l4.52918,22.67842c.09445.47292.8175.27274.72321-.19938L6.57679,56.684c-.09445-.47292-.8175-.27274-.72321.19937Z" fill="#e4e4e4" id="svg_40"/><path d="M24.57028,42.14243l6.79623,26.64743a.37532.37532,0,0,0,.72321-.19938L25.29349,41.94305a.37532.37532,0,0,0-.72321.19938Z" fill="#e4e4e4" id="svg_41"/><path d="M39.31228,25.31444V40.62153a.37522.37522,0,0,0,.75,0V25.31444a.37522.37522,0,0,0-.75,0Z" fill="#e4e4e4" id="svg_42"/><path d="M32.20467,12.55612,29.65726,34.66679c-.05514.47863.69531.47468.75,0l2.54741-22.11067c.05515-.47864-.69531-.47469-.75,0Z" fill="#e4e4e4" id="svg_43"/></pattern></defs><g class="currentLayer" style=""><title>Layer 1</title><path d="M296.62911887695316,237.36384759765627 a34.12351,34.12351 0 0 0 -45.19727,-28.82093 l2.47412,0.25245 a45.21117,45.21117 0 0 0 -27.63086,17.651790000000002 a39.14649,39.14649 0 0 0 -6.20263,31.92517 c2.80371,10.83356 11.08007,20.23261 21.67382,23.83868 c5.89063,2.00531 12.21387,2.25025 18.4336,2.46174 c4.03711,0.13726000000000002 8.14844,0.25994 12.04053,-0.8216600000000001 a25.29322,25.29322 0 0 0 12.59472,-8.78 a51.67649,51.67649 0 0 0 7.4502,-13.64172 C295.28194887695315,253.77088759765627 297.4484488769531,245.55414759765625 296.62911887695316,237.36384759765627 z" fill="#2f2e41" id="svg_44"/><path d="M384.58859887695314,736.5012875976563 c-8.79548,-33.08039 10.736930000000001,-65.32354 33.56046,-87.64462 c12.16363,-11.89584 25.70964,-22.23658 38.91937,-32.918 a415.65263,415.65263 0 0 0 36.15079,-32.55711 c22.02173,-22.53988 41.23144,-48.29877 53.95275,-77.25417 c12.09717,-27.53475 17.8153,-57.529 14.9829,-87.57264 c-2.6863,-28.49387 -12.89968,-56.5226 -31.68743,-78.38388 q-3.51169,-4.0862 -7.38812,-7.83319 c-1.3858700000000002,-1.3456700000000001 -3.50952,0.77339 -2.12132,2.12132 c20.98,20.37151 33.19114,47.97857 37.32381,76.69941 c4.26188,29.61882 -0.12942,59.81441 -11.205,87.50561 c-11.79852,29.49864 -30.56028,55.821 -52.31808,78.79115 a385.92356,385.92356 0 0 1 -34.903,32.35939 c-13.12383,10.811 -26.76083,21.02543 -39.25754,32.57843 c-23.03182,21.29252 -43.732,50.58154 -40.88841,83.5511 a66.35642,66.35642 0 0 0 1.986,11.35476 a1.50128,1.50128 0 0 0 2.89284,-0.79752 z" fill="#f0f0f0" id="svg_45"/><path d="M476.69751887695315,548.1764675976563 a306.69742,306.69742 0 0 1 -31.51565,-75.87111 a312.81594,312.81594 0 0 1 -10.52781,-81.49126 c0.10076000000000002,-27.50732 3.44056,-55.70322 11.96815,-81.93469 c8.0933,-24.8956 22.59412,-48.63763 45.61578,-62.2231 a74.51564,74.51564 0 0 1 38.75409,-10.23425 c14.37543,0.13621000000000003 28.55211,3.92 41.50459,10.04691 c12.68546,6.00058 24.28517,14.08726 35.00072,23.10194 A257.32123,257.32123 0 0 1 636.0125088769531,297.57228759765627 c17.36624,19.97014 31.554,43.09289 39.47847,68.44629 c8.25853,26.42231 9.70614,55.32307 2.04161,82.06482 c-7.36161,25.68484 -23.48871,47.57711 -43.28753,65.1627 c-21.39627,19.00448 -46.74161,32.81553 -72.299,45.35022 c-6.39677,3.13731 -12.82822,6.2032 -19.25974,9.26842 c-1.742,0.83021 -0.22158000000000003,3.41765 1.5141499999999999,2.59041 c26.94915,-12.84379 54.16476,-25.79986 78.188,-43.73209 c21.19689,-15.82251 40.091,-35.685 51.33145,-59.87952 c11.8867,-25.58564 14.32265,-54.67739 9.39588,-82.2821 c-4.815,-26.97854 -16.89424,-52.22858 -33.06066,-74.21945 a242.87715,242.87715 0 0 0 -26.691,-30.46169 a220.72244,220.72244 0 0 0 -32.5505,-26.52947 c-23.91833,-15.634 -53.82981,-25.07508 -82.17585,-17.02194 C483.4375988769531,243.48828759765627 464.0425988769531,263.67953759765624 452.5018988769531,286.56234759765624 c-6.45937,12.80758 -10.813,26.58133 -13.91,40.55811 a295.57217,295.57217 0 0 0 -6.08029,41.8096 A314.79143,314.79143 0 0 0 464.3645988769531,531.6717975976562 q4.563,9.17282 9.74252,18.01882 a1.50112,1.50112 0 0 0 2.59041,-1.5141499999999999 z" fill="#f0f0f0" id="svg_46"/><path d="M457.69751887695315,519.1764675976563 a306.69742,306.69742 0 0 1 -31.51565,-75.87111 a312.81594,312.81594 0 0 1 -10.52781,-81.49126 c0.10076000000000002,-27.50732 3.44056,-55.70322 11.96815,-81.93469 c8.0933,-24.8956 22.59412,-48.63763 45.61578,-62.2231 a74.51564,74.51564 0 0 1 38.75409,-10.23425 c14.37543,0.13621000000000003 28.55211,3.92 41.50459,10.04691 c12.68546,6.00058 24.28517,14.08726 35.00072,23.10194 A257.32123,257.32123 0 0 1 617.0125088769531,268.57228759765627 c17.36624,19.97014 31.554,43.09289 39.47847,68.44629 c8.25853,26.42231 9.70614,55.32307 2.04161,82.06482 c-7.36161,25.68484 -23.48871,47.57711 -43.28753,65.1627 c-21.39627,19.00448 -46.74161,32.81553 -72.299,45.35022 c-6.39677,3.13731 -12.82822,6.2032 -19.25974,9.26842 c-1.742,0.83021 -0.22158000000000003,3.41765 1.5141499999999999,2.59041 c26.94915,-12.84379 54.16476,-25.79986 78.188,-43.73209 c21.19689,-15.82251 40.091,-35.685 51.33145,-59.87952 c11.8867,-25.58564 14.32265,-54.67739 9.39588,-82.2821 c-4.815,-26.97854 -16.89424,-52.22858 -33.06066,-74.21945 a242.87715,242.87715 0 0 0 -26.691,-30.46169 a220.72244,220.72244 0 0 0 -32.5505,-26.52947 c-23.91833,-15.634 -53.82981,-25.07508 -82.17585,-17.02194 C464.4375988769531,214.48828759765627 445.0425988769531,234.67953759765624 433.5018988769531,257.56234759765624 c-6.45937,12.80758 -10.813,26.58133 -13.91,40.55811 a295.57217,295.57217 0 0 0 -6.08029,41.8096 A314.79143,314.79143 0 0 0 445.3645988769531,502.6717975976562 q4.563,9.17282 9.74252,18.01882 a1.50112,1.50112 0 0 0 2.59041,-1.5141499999999999 z" fill="#f0f0f0" id="svg_47"/><path d="M184.5945988769531,462.9557475976562 a12.514,12.514 0 0 1 4.8756200000000005,-18.559 L224.14641887695313,335.82128759765624 l24.1502,12.54528 L206.61709887695315,451.1478475976562 a12.58187,12.58187 0 0 1 -22.02254,11.8079 z" fill="#ffb6b6" id="svg_48"/><path d="M212.92408887695314,350.83552759765627 a5.60508,5.60508 0 0 1 0.026340000000000006,-4.67218 l11.877,-25.535 a15.58316,15.58316 0 0 1 29.908,8.766 l-3.96964,27.97311 a5.61114,5.61114 0 0 1 -7.14932,4.59123 l-27.17168,-8.05054 A5.60483,5.60483 0 0 1 212.92408887695314,350.83552759765627 z" fill="#2f2e41" id="svg_49"/><path d="M313.1022588769531,355.1448475976562 c-8.25268,21.6095 -6.144,44.27539 4.02,67.76251 h-72 c2.8938,-16.71118 1.7200000000000002,-32.24139 -9,-45 z" fill="#ffb6b6" id="svg_50"/><path d="M228.83638887695315,315.43336759765623 l21.3086,-15.497160000000001 L285.0135988769531,290.2504875976563 l29.05718,5.81143 l1.70815,16.05659 a193.849,193.849 0 0 1 -2.6767200000000004,58.52347 v0 L237.5535388769531,388.07628759765623 l-7.7485800000000005,-13.56 s-17.4343,-17.4343 -3.8742900000000002,-36.80576 z" fill="#2f2e41" id="svg_51"/><path d="M413.9122288769531,207.03617759765626 a12.51407,12.51407 0 0 1 -11.00353,15.72044 l-70.14516,89.83722 l-18.30812,-20.13527 l74.70729,-81.97562 a12.58187,12.58187 0 0 1 24.74952,-3.44677 z" fill="#ffb6b6" id="svg_52"/><path d="M348.49259887695314,302.39747759765623 a5.60512,5.60512 0 0 1 -1.64341,4.37369 L326.8610488769531,326.60988759765627 a15.58316,15.58316 0 0 1 -25.01867,-18.58489 L315.2575988769531,283.15966759765627 a5.61112,5.61112 0 0 1 8.29719,-1.83 l22.69969,16.965700000000002 A5.60486,5.60486 0 0 1 348.49259887695314,302.39747759765623 z" fill="#2f2e41" id="svg_53"/><polygon points="228.931 716.837 239.964 716.837 245.213 674.28 228.929 674.28 228.931 716.837" fill="#ffb6b6" id="svg_54"/><path d="M225.1944788769531,711.3945075976562 l17.44141,-1.041 v7.47266 l16.582,11.45215 a4.6677,4.6677 0 0 1 -2.65234,8.50879 H235.80092887695315 l-3.5791,-7.3916 l-1.3974600000000001,7.3916 h-7.8291 z" fill="#2f2e41" id="svg_55"/><polygon points="306.931 716.837 317.964 716.837 323.213 674.28 306.929 674.28 306.931 716.837" fill="#ffb6b6" id="svg_56"/><path d="M303.1944788769531,711.3945075976562 l17.44141,-1.041 v7.47266 l16.582,11.45215 a4.6677,4.6677 0 0 1 -2.65234,8.50879 H313.8009288769531 l-3.5791,-7.3916 l-1.3974600000000001,7.3916 h-7.8291 z" fill="#2f2e41" id="svg_57"/><path d="M336.2423988769531,478.3973575976562 v21.7 l-2.12012,26.51 s-0.6699200000000002,23.15 -1.48,41.41 c-0.48975,11.1 -1.04,20.39 -1.52,21.59 c-0.5898400000000001,1.47 -0.45019,5.48 -0.10986000000000001,9.69 c0.3999000000000001,4.87 1.06006,10.01 1.16992,11.73 c0.21000000000000002,3.21 -1.49024,17 -1.49024,17 s-1.8999000000000001,34.58 -4.659660000000001,37.34 c-2.76026,2.7600000000000002 0,10.61 0,10.61 c-12.93994,9.54 -29.28028,-2.12 -29.28028,-2.12 c3.61035,-5.75 -2.12011,-45 -2.12011,-45 s-0.8398500000000001,-13.4 -2.53955,-17 c-1.7002000000000002,-3.6 -2.13038,-26.09 -2.13038,-26.09 v-33.31 s-4.46,-6.82 -5.08984,-10 s0,-14.42 0,-14.42 l-4.66016,-15.7 l-3.18994,12.3 s-8.25976,34.37 -9.75,38.61 c-1.48974,4.24 0.84033,8.49 0.84033,8.49 s2.12989,6.54 0,9.54 a21.45549,21.45549 0 0 0 -3,6.16 s-1.09033,12.52 -3,17 c-1.91015,4.48 -3.6000900000000002,10 -3.6000900000000002,10 s0.44970000000000004,8.46 -1.46,10.37 c-1.9101599999999999,1.9100000000000001 -2.54,11.46 -2.54,11.46 s0.41992000000000007,10.81 -2.13037,14.63 c-2.54981,3.8200000000000003 -2.54981,25.46 -2.54981,25.46 a29.67841,29.67841 0 0 1 -29.87988,1.27 s2.52,-2.36 0.6098600000000001,-13.36 c-1.9096700000000002,-11 1.37012,-40.95 1.37012,-40.95 s-0.41992000000000007,-7.6 1.69971,-11 c2.12011,-3.4 -1.06983,-9.97 -0.21973000000000004,-12.94 s3.3999,-19.1 3.3999,-19.1 s-1.06006,-39.67 -1.06006,-41.79 a27.6995,27.6995 0 0 0 -3,-10.82 c-1.9096600000000001,-3.39 0,-28 0,-28 s4.5,-12.72 3,-15.48 c-1.5,-2.7600000000000002 1,-7.640000000000001 1,-7.640000000000001 s-2.33007,-5.73 0,-6.79 s2.76026,-5.3 2.76026,-5.3 l1.6196300000000001,-20.58 s0.6103500000000001,-9.34 2.55029,-9.76 c1.93994,-0.42005000000000003 1.08984,-4.02 3,-6.57 a17.93017,17.93017 0 0 0 1.8999000000000001,-5.52 c0.27,-1.18 0.52,-2.41 0.7300000000000001,-3.59 c0.6001000000000001,-3.2 0.97022,-5.96 0.97022,-5.96 c12.52,10.4 78.34961,3.11 78.41992,3.11 c4.17969,0.91 9.1499,15.42 12.73974,28.07 A127.592,127.592 0 0 1 336.2423988769531,478.3973575976562 z" fill="#2f2e41" id="svg_58"/><circle cx="306.53086853027344" cy="986.0292358398438" r="29.87165069580078" transform="rotate(-73.09107971191406 -210.49110412597642,651.6805419921876) " fill="#ffb6b6" id="svg_59"/><path d="M226.01567887695313,259.46213759765624 l0,0 l11.567,-2.40685 l2.12984,-15.35044 l3.99352,14.0763 l5.52858,-1.15038 l1.2424600000000001,-8.95443 l2.3297,8.21114 l41.07976,-8.54781 l0,0 a31.62173,31.62173 0 0 0 -37.40045,-24.51681 l-5.95365,1.23883 A31.62173,31.62173 0 0 0 226.01567887695313,259.46213759765624 z" fill="#2f2e41" id="svg_60"/><path d="M344.3513288769532,34.84910759765626 l-0.07600000000000001,0.14584000000000003 a64.6843,64.6843 0 0 0 -59.72048,114.58615 l-0.07600000000000001,0.14584000000000003 l114.87783,59.8725 l59.8725,-114.87783 a64.772,64.772 0 1 0 -114.87783,-59.8725 z" fill="#ff6584" id="svg_61" class="" fill-opacity="1"/><path d="M445.54401953863146,694.0539975976562 l-0.01921,0.03686000000000001 A16.34883,16.34883 0 0 0 430.4305295386314,723.0522875976562 l-0.01921,0.03686000000000001 L459.44652953863147,738.2218075976563 l15.13266,-29.03515 a16.371,16.371 0 1 0 -29.03515,-15.13266 z" fill="#ff6584" id="svg_62" class=""/><path d="M61.533328876953135,325.89913759765625 v0.16446000000000005 a64.6843,64.6843 0 0 0 0.00006000000000000002,129.215 v0.16446000000000005 l129.54394,-0.00006000000000000002 l-0.00006000000000000002,-129.54393 a64.772,64.772 0 1 0 -129.54394,0 z" fill="#3535f2" id="svg_63" class="selected" fill-opacity="1"/><path d="M665.2574788769531,739.8145775976562 h-647.294 a1.19068,1.19068 0 1 1 0,-2.38136 h647.294 a1.19068,1.19068 0 1 1 0,2.38136 z" fill="#cacaca" id="svg_64"/><path d="M562.1986788769532,448.2810375976562 a57.16908,57.16908 0 0 0 36.198,-13.21358 a55.47488,55.47488 0 0 0 19.16572,-34.28885 a56.61647,56.61647 0 0 0 -1.10816,-22.70921 a1.50129,1.50129 0 0 0 -2.89284,0.79752 a53.9543,53.9543 0 0 1 -4.07408,37.5331 a53.35448,53.35448 0 0 1 -47.2886,28.881 a1.5009000000000001,1.5009000000000001 0 0 0 0,3 z" fill="#f0f0f0" id="svg_65"/><path d="M330.5502588769531,58.622027597656256 c-8.53553,-8.10264 -22.01337,-8.08143 -31.871,-2.44084 c-11.06235,6.32992 -16.07749,19.40985 -15.824,31.691 c0.2853200000000001,13.822 7.04345,26.33726 15.76947,36.70292 A146.21811,146.21811 0 0 0 330.7505488769531,152.34428759765626 a161.4139,161.4139 0 0 0 38.51515,18.35436 q2.5098700000000003,0.8092400000000001 5.04561,1.53376 a1.50129,1.50129 0 0 0 0.79752,-2.89284 a157.49379,157.49379 0 0 1 -68.89891,-40.87946 c-9.073,-9.29262 -17.136,-20.461 -19.61587,-33.45986 c-2.19,-11.47968 0.23036,-24.80866 9.12789,-32.98573 c8.64919,-7.94885 23.78712,-9.73863 32.707,-1.2711299999999999 c1.4,1.3290000000000002 3.525,-0.78883 2.12132,-2.12132 z" fill="#fff" id="svg_66"/><path d="M59.31539887695311,357.45612759765623 c-11.52969,-1.43375 -22.35769,6.67563 -26.84833,16.91864 c-5.03588,11.4867 -1.6406100000000001,24.72757 5.66408,34.4355 c8.04476,10.69149 20.23018,16.92385 32.96783,20.23221 c13.673,3.55131 28.18755,4.51 42.26239,3.85414 a161.66862,161.66862 0 0 0 48.67642,-9.89456 c1.79416,-0.6661700000000002 1.01793,-3.56691 -0.79752,-2.89284 c-26.00061,9.654 -54.9456,12.6997 -82.28723,7.60291 c-12.22158,-2.27824 -24.66867,-6.6247300000000005 -33.7761,-15.4179 c-8.2522,-7.96746 -14.09013,-20.034 -11.60661,-31.68668 c2.46781,-11.579 13.4767,-21.677 25.74507,-20.15142 c1.91114,0.23765 1.8938800000000002,-2.7645 0,-3 z" fill="#fff" id="svg_67"/><path d="M251.1338888769531,210.50637759765624 c2.78866,-11.14769 -2.6126300000000002,-23.1049 -10.97582,-30.98555 S220.88159887695315,167.11101759765626 210.08024887695314,163.18948759765624 c-8.61366,-3.12727 -18.70291,-5.84737 -26.49879,-1.03082 c-6.2643,3.8702900000000002 -8.98166,11.388 -12.56273,17.822 a58.41151,58.41151 0 0 1 -71.78588,26.19541 c4.62329,13.42145 20.54829,19.98636 34.71442,19.07467 s27.25027,-7.4355 40.4466,-12.66688 s27.87571,-9.27329 41.43883,-5.08376 c5.72453,1.7682600000000002 10.93081,4.92405 16.59875,6.86609 s12.30082,2.5203699999999998 17.35214,-0.7016200000000001 " fill="#2f2e41" id="svg_68"/><path d="M449.5468688769531,618.7940175976563 l-9.65653,-16.99723 a1.50112,1.50112 0 0 0 -2.59041,1.51416 l9.65653,16.99723 a1.50112,1.50112 0 0 0 2.59041,-1.51416 z" fill="#f0f0f0" id="svg_69"/><path d="M243.88204887695315,408.08735759765625 l-0.7100000000000001,-0.8800000000000001 A5.56168,5.56168 0 0 1 243.88204887695315,408.08735759765625 z" fill="url(#e316dee7-4006-4b05-87d0-6679d9899947)" id="svg_70"/></g></svg>